<svg xmlns="http://www.w3.org/2000/svg" viewBox="0 0 48 48"><path fill="#3572A5" d="M24 3.5c-5.8 0-10.5 1.2-10.5 4.5v3h10.5v1H9.5C6.2 12 3.5 14.7 3.5 18v6c0 3.3 2.7 6 6 6h3v-3.5c0-3.3 2.7-6 6-6h10.5c2.8 0 5-2.2 5-5V8c0-2.8-2.2-4.5-5-4.5H24zm-3 4a1.5 1.5 0 1 1 0 3 1.5 1.5 0 0 1 0-3z"/><path fill="#FFD43B" d="M38.5 12h-3v3.5c0 3.3-2.7 6-6 6H19c-2.8 0-5 2.2-5 5V40c0 2.8 2.2 4.5 5 4.5H29c5.8 0 10.5-1.2 10.5-4.5v-3H29v-1h14c3.3 0 6-2.7 6-6v-6c0-3.3-2.7-6-6-6h-4.5v-1zM27 40a1.5 1.5 0 1 1 0-3 1.5 1.5 0 0 1 0 3z"/></svg>
